# xmcd
#
# Track frame offsets: 
#        150
#        22452
#        49540
#        72997
#        98890
#        118281
#        148986
#        173790
#        196540
#        224466
#
# Disc length: 3281 seconds
#
# Revision: 0
# Processed by: cddbd v1.5.2PL0 Copyright (c) Steve Scherf et al.
# Submitted via: ExactAudioCopy v1.0b3
#
DISCID=9b0ccf0a
DTITLE=Yen Khoa - Khung Troi Tuoi Mong
DYEAR=1999
DGENRE=
TTITLE0=Khung troi tuoi mong
TTITLE1=Tinh trong nhu da
TTITLE2=Giong ca di vang
TTITLE3=Tinh co
TTITLE4=Hoi tuong
TTITLE5=Neu hai dua minh
TTITLE6=Nha anh nha em
TTITLE7=Ngan thu vinh biet
TTITLE8=Thuong ve mien dat lanh
TTITLE9=Nguoi ngoai pho
EXTD=
EXTT0=
EXTT1=
EXTT2=
EXTT3=
EXTT4=
EXTT5=
EXTT6=
EXTT7=
EXTT8=
EXTT9=
PLAYORDER=
